<?xml version="1.0" encoding="UTF-8"?>
<svg id="Layer_2" data-name="Layer 2" xmlns="http://www.w3.org/2000/svg" xmlns:xlink="http://www.w3.org/1999/xlink" viewBox="0 0 570.64 182.52">
  <defs>
    <style>
      .cls-1 {
        fill: url(#linear-gradient-2);
      }

      .cls-2 {
        fill: url(#linear-gradient-5);
      }

      .cls-3 {
        fill: #34652b;
      }

      .cls-4 {
        fill: none;
      }

      .cls-5 {
        fill: #57a841;
      }

      .cls-6 {
        fill: url(#linear-gradient-3);
      }

      .cls-7 {
        fill: url(#linear-gradient);
      }

      .cls-8 {
        fill: #7eca69;
      }

      .cls-9 {
        fill: url(#linear-gradient-4);
      }
    </style>
    <linearGradient id="linear-gradient" x1="109.83" y1="10.63" x2="102.48" y2="67.27" gradientUnits="userSpaceOnUse">
      <stop offset="0" stop-color="#62ba51"/>
      <stop offset="1" stop-color="#458935"/>
    </linearGradient>
    <linearGradient id="linear-gradient-2" x1="189.78" y1="82.67" x2="112.54" y2="94.65" xlink:href="#linear-gradient"/>
    <linearGradient id="linear-gradient-3" x1="103.13" y1="144.28" x2="156.26" y2="144.28" gradientUnits="userSpaceOnUse">
      <stop offset="0" stop-color="#458935"/>
      <stop offset="1" stop-color="#62ba51"/>
    </linearGradient>
    <linearGradient id="linear-gradient-4" x1="34.72" y1="147.07" x2="91.25" y2="147.07" xlink:href="#linear-gradient"/>
    <linearGradient id="linear-gradient-5" x1="1.54" y1="78.74" x2="76.75" y2="78.74" gradientTransform="translate(-.81 .98) rotate(-.35)" xlink:href="#linear-gradient"/>
  </defs>
  <g id="Layer_1-2" data-name="Layer 1">
    <g>
      <path class="cls-4" d="m545.38,111.12c-1.71.32-3.4.59-5.06.82-1.66.23-3.07.41-4.2.55-2.64.37-5.04.96-7.18,1.78-2.14.82-3.82,1.97-5.02,3.45-1.21,1.48-1.81,3.41-1.81,5.78,0,2.19.56,4.02,1.67,5.5,1.12,1.48,2.64,2.61,4.58,3.38,1.94.78,4.16,1.16,6.67,1.16,3.69,0,6.87-.73,9.54-2.19,2.67-1.46,4.74-3.38,6.22-5.78,1.48-2.39,2.22-5,2.22-7.83v-9.02c-.59.46-1.58.89-2.97,1.3-1.39.41-2.94.78-4.65,1.09Z"/>
      <path class="cls-4" d="m78.25,100.35c-.21-.23-1.45-1.47-1.71-1.7.23.25.47.49.71.7l14.89,16.16,21.05-7.28-.71-21.99-22.48-5.61-11.75,19.72Z"/>
      <path class="cls-4" d="m267.28,73.63h-.7s-5.46,16.52-7.84,22.4l-5.74,13.3h27.72l-5.74-13.3c-2.52-5.74-7.7-22.4-7.7-22.4Z"/>
      <path class="cls-7" d="m90.5,79.77c4.68-7.22,21.35-14.97,26.03-17.04-1.54-12.82-2.31-28.5-2.73-45.54-.43-8.93-7.32-16.12-16.07-17.07.08,12.81-.02,66.27-7.23,79.65Z"/>
      <path class="cls-3" d="m90.5,79.77c-.16.31-.33.6-.5.86,7.21-3.89,16.61-7.64,27.43-11.32-.32-2.1-.62-4.29-.9-6.58-4.68,2.07-21.35,9.82-26.03,17.04Z"/>
      <path class="cls-8" d="m90,80.64l22.48,5.61c.32.05.65.12.98.2,14.99,2.5,65.62-14.65,77.73-18.86-.1-.46-.21-.92-.35-1.38-2.92-9.5-13.01-14.8-22.49-11.82-18.4,4.94-36.01,9.87-50.91,14.93.11.72.23,1.42.34,2.12-10.7,1.03-18.67,4.83-27.77,9.2Z"/>
      <path class="cls-8" d="m117.77,71.43c-.12-.69-.23-1.4-.34-2.12-10.82,3.68-20.21,7.43-27.43,11.32,9.1-4.37,17.07-8.17,27.77-9.2Z"/>
      <path class="cls-1" d="m113.46,86.44c8.34,2.1,21.06,15.37,24.53,19.13,11.64-5.59,26.23-11.39,42.23-17.28,8.32-3.29,12.89-12.13,10.97-20.72-12.1,4.21-62.73,21.36-77.73,18.86Z"/>
      <path class="cls-3" d="m113.46,86.44c-.33-.08-.66-.15-.98-.2,6.12,5.67,12.6,13.33,19.46,22.36,1.91-1,3.93-2.01,6.05-3.03-3.47-3.76-16.19-17.04-24.53-19.13Z"/>
      <path class="cls-8" d="m112.48,86.24l.71,21.99c.06.32.1.65.13.99,2.47,15,35.04,57.39,42.94,67.48.4-.25.8-.5,1.19-.78,8.05-5.83,9.81-17.1,3.93-25.1-10.48-15.62-20.29-30.15-29.44-42.21-.61.32-1.2.63-1.78.95-4.43-9.8-11.24-16.13-17.67-23.32Z"/>
      <path class="cls-8" d="m112.48,86.24c6.43,7.19,13.25,13.52,17.67,23.32.58-.32,1.18-.63,1.78-.95-6.85-9.04-13.34-16.69-19.46-22.36Z"/>
      <path class="cls-6" d="m103.13,138.61c9.05,9.21,19.24,21.15,29.98,34.39,5.8,6.81,15.64,8.29,23.15,3.7-7.89-10.09-40.46-52.48-42.94-67.48.71,8.57-7.76,24.89-10.2,29.39Z"/>
      <path class="cls-3" d="m113.32,109.22c-.03-.34-.07-.67-.13-.99-3.4,7.62-8.64,16.15-15.08,25.45,1.63,1.54,3.3,3.18,5.01,4.93,2.44-4.5,10.9-20.82,10.2-29.39Z"/>
      <path class="cls-8" d="m113.2,108.23l-21.05,7.28c-.28.16-.58.3-.9.44-13.4,7.18-43.01,51.69-50.02,62.41.36.3.73.6,1.12.87,8.11,5.74,19.35,3.77,25.03-4.38,11.4-14.95,22.14-28.76,30.73-41.17-.43-.41-.86-.81-1.28-1.2,7.84-7.35,11.23-15.63,16.37-24.25Z"/>
      <path class="cls-8" d="m96.83,132.48c.42.39.85.79,1.28,1.2,6.44-9.31,11.69-17.83,15.08-25.45-5.14,8.62-8.52,16.9-16.37,24.25Z"/>
      <path class="cls-9" d="m91.25,115.95c-7.89,3.43-26.06.69-31.11-.17-5.8,11.54-13.81,25.04-22.88,39.48-4.58,7.69-2.8,17.48,3.97,23.11,7.01-10.73,36.62-55.23,50.02-62.41Z"/>
      <path class="cls-3" d="m91.25,115.95c.31-.14.62-.28.9-.44-8.28-.7-18.22-2.6-29.31-5.33-.84,1.82-1.73,3.67-2.7,5.61,5.05.86,23.22,3.6,31.11.17Z"/>
      <path class="cls-8" d="m92.15,115.51l-14.89-16.16c-.24-.21-.48-.45-.71-.7-11.18-10.3-62.95-23.64-75.38-26.74-.17.44-.33.88-.46,1.34-2.75,9.55,2.79,19.51,12.36,22.2,17.92,5.87,34.89,11.05,49.77,14.72.36-.78.74-1.57,1.07-2.33,9.49,5.05,18.5,6.43,28.23,7.66Z"/>
      <path class="cls-8" d="m63.91,107.84c-.34.76-.71,1.55-1.07,2.33,11.09,2.73,21.02,4.63,29.31,5.33-9.74-1.23-18.74-2.61-28.23-7.66Z"/>
      <path class="cls-2" d="m66.48,69.21c-12.8-1.69-28.19-4.82-44.8-8.64-8.76-1.8-17.43,3.1-20.52,11.34,12.43,3.1,64.2,16.44,75.38,26.74-5.83-6.32-9.21-24.39-10.06-29.44Z"/>
      <path class="cls-3" d="m78.25,100.35c-1.8-8.33-2.54-18.43-2.64-29.77,0-.15,0-.31-.01-.46-2.75-.23-6.05-.5-9.12-.91.85,5.05,4.23,23.12,10.06,29.44.26.24,1.5,1.47,1.71,1.7Z"/>
      <path class="cls-8" d="m90,80.64c.17-.26.34-.56.5-.86,7.21-13.39,7.31-66.84,7.23-79.65-.47-.05-.94-.1-1.42-.11-9.93-.3-18.21,7.54-18.45,17.48-1.27,19.11-2.39,37.3-2.25,53.1.31,10.81.22,14.91,2.64,29.77l11.75-19.72Z"/>
      <path class="cls-8" d="m75.62,70.58c.1,11.34.84,21.44,2.64,29.77-2.42-14.86-2.33-18.96-2.64-29.77Z"/>
      <path class="cls-5" d="m256.78,53.05l-39.48,92.12h21.42l9.1-21.42h38.08l9.24,21.42h21.42l-39.48-92.12h-20.3Zm-3.78,56.28l5.74-13.3c2.38-5.88,7.84-22.4,7.84-22.4h.7s5.18,16.66,7.7,22.4l5.74,13.3h-27.72Z"/>
      <path class="cls-5" d="m373.96,107.37c-4.06-2.1-9.52-3.22-16.8-4.2-6.02-.84-10.36-1.4-12.6-2.38-2.24-.84-3.22-2.66-3.22-4.48,0-3.92,3.36-7,12.32-7s16.66,2.38,21.42,4.62l4.48-14c-4.34-2.1-14.14-5.32-26.18-5.32-20.02,0-29.96,9.66-29.96,21.7,0,6.16,2.66,11.2,6.86,14,3.92,2.66,9.38,4.34,18.48,5.6,6.44.84,10.78,1.4,12.88,2.24,2.8,1.12,3.64,3.22,3.64,5.32,0,4.48-3.92,8.54-13.72,8.54-11.34,0-20.86-4.06-24.22-5.46l-4.06,14.42c4.34,2.1,16.38,5.6,29.12,5.6,20.72,0,30.94-10.64,30.94-23.24,0-7.28-3.36-12.88-9.38-15.96Z"/>
      <path class="cls-5" d="m420.02,58.79h-18.92l-.26,17.22h-11.06v15.4h12.04v31.92c0,15.82,8.4,23.24,22.4,23.24,9.52,0,15.68-2.8,15.68-2.8l-1.82-14.14c-1.96.7-5.6,1.68-9.38,1.68-5.74,0-8.68-2.8-8.68-10.92v-28.98h21v-15.4h-21v-17.22Z"/>
      <path class="cls-5" d="m471.68,87.77h-.7v-11.76h-17.5v69.16h18.34v-41.3c3.08-6.02,8.96-11.06,18.06-11.06,2.52,0,5.18.56,6.3.84l2.1-17.22c-.28-.28-3.5-1.68-7.98-1.68-7.14,0-12.88,1.54-18.62,13.02Z"/>
      <path class="cls-5" d="m570.62,96.62s1.46-22.12-20.33-27.65c-18.28-4.64-33.58,3.08-38.04,5.69-.74.43-1,1.36-.59,2.11,1.09,2.01,3.15,6,4.22,9.48.15.49.69.73,1.15.53,5.57-2.44,35.29-14.34,34.84,9.84-.27.31-.58.59-.96.83-1.3.82-3.34,1.41-6.12,1.78-2.78.37-6.38.8-10.8,1.3-3.74.37-7.34.98-10.8,1.85-3.46.87-6.57,2.14-9.33,3.83-2.76,1.69-4.95,3.94-6.56,6.77-1.62,2.83-2.43,6.4-2.43,10.73,0,5.01,1.12,9.23,3.35,12.65,2.23,3.42,5.29,6,9.16,7.76,3.87,1.75,8.23,2.63,13.06,2.63,4.01,0,7.49-.56,10.42-1.67s5.4-2.6,7.38-4.44,3.54-3.84,4.68-5.98h.68v10.53h17.02v-48.55h-.02Zm-17.62,21.13c0,2.83-.74,5.43-2.22,7.83-1.48,2.39-3.55,4.32-6.22,5.78-2.67,1.46-5.84,2.19-9.54,2.19-2.51,0-4.73-.39-6.67-1.16-1.94-.77-3.46-1.9-4.58-3.38-1.12-1.48-1.67-3.32-1.67-5.5,0-2.37.6-4.29,1.81-5.78,1.21-1.48,2.88-2.63,5.02-3.45,2.14-.82,4.53-1.41,7.18-1.78,1.14-.14,2.54-.32,4.2-.55,1.66-.23,3.35-.5,5.06-.82,1.71-.32,3.26-.68,4.65-1.09,1.39-.41,2.38-.84,2.97-1.3v9.02Z"/>
      <path class="cls-5" d="m518.53,73.14c1.5-4.51-3.14,2.94,0,0h0Z"/>
    </g>
  </g>
</svg>